<svg width="110" height="110" viewBox="0 0 110 110" fill="none" xmlns="http://www.w3.org/2000/svg">
<path d="M91.3488 81.4825C91.358 82.3472 91.1349 83.4778 90.9027 84.4097C89.2802 90.9639 82.0752 98.3186 71.9338 97.6495C62.7427 97.0445 55.2566 92.6322 55.2566 86.4447C55.2566 80.2572 62.7244 75.24 71.9338 75.24C81.1433 75.24 91.2908 75.295 91.3488 81.4825Z" fill="#EA596E"/>
<path d="M71.934 76.2789C66.987 76.2789 55.6968 77.6478 53.1056 77.6478C48.5284 77.6478 44.8159 80.52 44.8159 84.0644C44.8159 85.7694 45.6898 87.3095 47.0893 88.4583C47.0893 88.4583 50.1631 91.5414 55.6998 90.0625C58.1229 89.4147 62.0645 84.6053 69.0037 83.8414C72.4595 83.4594 78.9343 86.1331 90.3131 86.1972C90.802 85.1461 90.9029 84.4158 90.9029 84.4158C90.9029 78.2222 81.1434 76.2789 71.934 76.2789Z" fill="#DD2E44"/>
<path d="M90.9028 84.4097C90.9028 84.4097 97.5762 83.0561 101.726 77.5989C106.563 71.2342 105.927 64.4233 105.927 64.4233C110.828 55.2567 104.399 46.6614 104.399 46.6614C103.761 36.9844 97.7778 32.9756 97.7778 32.9756C93.8942 23.7447 85.302 21.2636 85.302 21.2636C78.5553 13.3711 66.5867 13.6247 66.5867 13.6247C66.5867 13.6247 55.3728 9.515 39.9789 14.135C37.4337 14.8989 28.9025 16.6803 22.6631 20.4997C2.99754 32.5386 1.50949 51.3119 1.78449 54.3644C3.30921 71.4236 15.2778 74.4792 22.9167 76.2606C24.6981 81.0975 31.2553 90.0106 43.0314 86.7014C57.5453 84.1561 63.6564 79.8264 67.2223 79.8264C70.7881 79.8264 80.7187 83.6458 90.9028 84.4097Z" fill="#F4ABBA"/>
<path d="M54.1964 56.98C61.3097 53.1453 65.1658 53.5028 68.5697 53.8114C69.6514 53.9092 70.675 53.9855 71.7108 53.9794C77.7731 53.8419 82.6833 51.2875 84.8558 48.8155C85.1049 48.5084 85.2255 48.1167 85.1923 47.7226C85.159 47.3285 84.9746 46.9626 84.6775 46.7015C84.3805 46.4404 83.9939 46.3044 83.5988 46.322C83.2037 46.3396 82.8307 46.5094 82.5581 46.7958C80.8836 48.7025 76.7556 50.8078 71.6406 50.9239C70.7239 50.9514 69.8042 50.8597 68.8508 50.7711C65.1994 50.4319 60.665 50.0164 52.745 54.2911C50.7131 55.388 47.9264 55.7944 44.9075 56.1C38.1944 46.4108 42.2339 37.9714 43.3889 35.9608C43.5019 35.9669 43.6119 36.0036 43.7281 36.0036C44.9503 36.0036 46.1786 35.7042 47.2908 35.0747C47.6297 34.8684 47.875 34.5385 47.9749 34.1546C48.0748 33.7707 48.0215 33.363 47.8262 33.0177C47.631 32.6724 47.309 32.4166 46.9286 32.3044C46.5481 32.1922 46.1389 32.2323 45.7875 32.4164C44.8262 32.9456 43.7007 33.0926 42.6358 32.828C41.5709 32.5635 40.645 31.9069 40.0431 30.9894C39.8158 30.669 39.4739 30.4485 39.0884 30.3735C38.7028 30.2986 38.3032 30.375 37.9725 30.5869C37.6418 30.7989 37.4054 31.1301 37.3125 31.5117C37.2195 31.8933 37.2771 32.2961 37.4733 32.6364C38.1975 33.77 39.2181 34.6225 40.37 35.1939C38.7781 38.4267 35.7561 46.9272 41.5067 56.433C37.4611 56.8303 33.4094 57.4017 30.2378 59.4458C28.0086 60.9064 26.064 62.7608 24.4994 64.9183C22.5775 64.5883 15.5406 62.8558 14.3122 55.0458C15.0761 54.453 15.6933 53.6708 16.0753 52.7053C16.1491 52.5187 16.1855 52.3194 16.1823 52.1187C16.1791 51.9181 16.1364 51.7201 16.0567 51.5359C15.9769 51.3518 15.8617 51.1851 15.7176 51.0455C15.5735 50.9059 15.4033 50.796 15.2167 50.7222C15.0301 50.6484 14.8308 50.612 14.6301 50.6152C14.4295 50.6184 14.2315 50.6611 14.0473 50.7408C13.8632 50.8205 13.6965 50.9358 13.5569 51.0799C13.4173 51.224 13.3074 51.3942 13.2336 51.5808C13.1181 51.902 12.9342 52.1943 12.6947 52.4375C12.4552 52.6807 12.1658 52.869 11.8464 52.9894C11.5228 53.097 11.1797 53.1336 10.8407 53.0966C10.5017 53.0597 10.1746 52.9502 9.88166 52.7755C9.70631 52.678 9.51347 52.616 9.31416 52.593C9.11484 52.5701 8.91295 52.5866 8.72001 52.6416C8.33035 52.7528 8.00081 53.0142 7.80389 53.3683C7.60696 53.7225 7.55879 54.1403 7.66995 54.53C7.78112 54.9196 8.04253 55.2492 8.39666 55.4461C9.26444 55.9289 10.1933 56.1733 11.1161 56.1733C11.2292 56.1733 11.3361 56.1214 11.4492 56.1153C12.9036 63.4883 18.7306 66.7272 22.8525 67.708C22.3128 68.8566 21.9709 70.0879 21.8411 71.3503C21.8055 71.7538 21.9316 72.155 22.1918 72.4656C22.4519 72.7761 22.8248 72.9707 23.2283 73.0064L23.3658 73.0125C23.7477 73.0124 24.1157 72.8694 24.3974 72.6115C24.679 72.3536 24.8539 71.9996 24.8875 71.6192C25.2175 67.9128 28.7528 64.0414 31.8939 62.0094C34.8394 60.1119 39.1508 59.7117 43.3247 59.3236C47.3733 58.9539 51.1989 58.5994 54.1964 56.98ZM93.5092 52.3844C93.4129 52.5606 93.3522 52.754 93.3306 52.9536C93.3091 53.1532 93.327 53.3551 93.3835 53.5477C93.44 53.7404 93.5338 53.92 93.6597 54.0764C93.7856 54.2328 93.9411 54.3629 94.1172 54.4592C94.2934 54.5555 94.4868 54.6161 94.6864 54.6377C94.886 54.6593 95.0879 54.6413 95.2805 54.5848C95.6696 54.4708 95.9975 54.2069 96.1919 53.8511C96.25 53.7472 101.82 43.3125 91.3917 36.3C91.0554 36.0739 90.643 35.9907 90.2453 36.0686C89.8476 36.1465 89.4972 36.3792 89.2711 36.7155C89.045 37.0519 88.9618 37.4642 89.0397 37.8619C89.1176 38.2596 89.3504 38.61 89.6867 38.8361C97.7656 44.2689 93.6864 52.0544 93.5092 52.3844ZM30.1767 27.7139C30.4192 27.7147 30.6583 27.6574 30.8742 27.5468C31.09 27.4363 31.2762 27.2756 31.4172 27.0783C35.8478 20.9153 41.9833 23.0236 42.2431 23.1214C42.6194 23.2456 43.0292 23.2187 43.3861 23.0464C43.743 22.8741 44.019 22.5699 44.1558 22.198C44.2926 21.826 44.2795 21.4155 44.1193 21.053C43.9591 20.6905 43.6643 20.4045 43.2972 20.2553C40.3639 19.1675 33.5897 18.8253 28.9361 25.2969C28.7728 25.5252 28.6754 25.794 28.6548 26.0739C28.6342 26.3539 28.6911 26.634 28.8193 26.8837C28.9475 27.1335 29.1419 27.343 29.3814 27.4895C29.6208 27.6359 29.896 27.7135 30.1767 27.7139ZM70.1189 21.945C76.9175 21.3919 80.0097 26.3205 80.1503 26.5528C80.3557 26.9025 80.6916 27.1562 81.0842 27.2582C81.2785 27.3087 81.4809 27.3204 81.6798 27.2927C81.8787 27.265 82.0702 27.1984 82.2433 27.0967C82.4165 26.9949 82.5679 26.8601 82.6889 26.6999C82.81 26.5396 82.8983 26.3571 82.9488 26.1628C82.9993 25.9684 83.011 25.766 82.9833 25.5671C82.9556 25.3682 82.8889 25.1767 82.7872 25.0036C82.6222 24.7255 78.6928 18.2264 69.8806 18.8986C69.6805 18.9143 69.4855 18.9691 69.3067 19.0602C69.1279 19.1512 68.9688 19.2765 68.8384 19.429C68.5751 19.737 68.4449 20.137 68.4765 20.541C68.5081 20.9449 68.6989 21.3198 69.0069 21.5831C69.3149 21.8464 69.7149 21.9766 70.1189 21.945ZM98.0772 66.5897C97.3256 66.5469 96.4975 67.1428 96.4303 67.9861C96.4242 68.0411 95.9383 73.2386 90.5942 74.9955C90.2447 75.1053 89.9465 75.3372 89.754 75.6488C89.5615 75.9605 89.4876 76.3309 89.5459 76.6926C89.6041 77.0542 89.7906 77.3827 90.0711 77.6182C90.3517 77.8536 90.7077 77.9802 91.0739 77.9747C91.2358 77.9747 91.3967 77.9489 91.5506 77.8983C98.7983 75.5211 99.4522 68.5361 99.4767 68.2397C99.5088 67.8356 99.3796 67.4351 99.1174 67.126C98.8552 66.8168 98.4812 66.624 98.0772 66.5897Z" fill="#EA596E"/>
<path d="M22.4492 51.7428C22.3891 51.9388 22.3691 52.1449 22.3904 52.3489C22.4116 52.5528 22.4737 52.7504 22.5729 52.9298C22.6721 53.1093 22.8064 53.2669 22.9678 53.3933C23.1293 53.5198 23.3145 53.6124 23.5125 53.6657C23.7104 53.7191 23.9171 53.732 24.1202 53.7038C24.3233 53.6756 24.5186 53.6068 24.6946 53.5015C24.8705 53.3962 25.0234 53.2565 25.1442 53.0909C25.2651 52.9252 25.3513 52.7369 25.3978 52.5372C25.692 51.4785 26.3761 50.5705 27.3126 49.9957C28.2491 49.4209 29.3684 49.222 30.4456 49.4389C30.642 49.48 30.8446 49.4821 31.0418 49.4449C31.239 49.4077 31.427 49.3321 31.595 49.2223C31.7629 49.1125 31.9076 48.9707 32.0208 48.8049C32.134 48.6392 32.2134 48.4528 32.2545 48.2564C32.2956 48.06 32.2977 47.8574 32.2605 47.6602C32.2233 47.463 32.1477 47.275 32.0379 47.107C31.9281 46.9391 31.7863 46.7944 31.6205 46.6812C31.4548 46.568 31.2684 46.4886 31.072 46.4475C29.8005 46.1896 28.4828 46.2804 27.2587 46.7103C23.6959 40.6175 24.3895 34.6103 24.3987 34.5461C24.4509 34.1449 24.3424 33.7392 24.0968 33.4176C23.8513 33.096 23.4887 32.8844 23.0878 32.8289C22.6876 32.7774 22.2832 32.8854 21.962 33.1295C21.6407 33.3736 21.4283 33.7343 21.3706 34.1336C21.3309 34.43 20.5151 41.2103 24.6187 48.2319C23.5711 49.1677 22.8175 50.3873 22.4492 51.7428ZM56.6073 44.1956C57.2172 43.6406 58.0146 43.3368 58.8392 43.3453C59.6638 43.3538 60.4547 43.6739 61.0531 44.2414C61.3448 44.5219 61.7355 44.6758 62.1402 44.6695C62.5448 44.6632 62.9306 44.4972 63.2134 44.2078C63.4958 43.9173 63.6512 43.5264 63.6455 43.1213C63.6398 42.7162 63.4733 42.3299 63.1828 42.0475C62.4926 41.3909 61.6588 40.9044 60.7476 40.6267C61.652 37.5222 61.2945 36.1442 60.4542 33.5622C60.2879 33.0571 60.128 32.5498 59.9745 32.0406L59.8828 31.735C58.7706 28.0439 58.0342 25.6086 60.1487 22.1711C60.361 21.8259 60.4275 21.4105 60.3335 21.0162C60.2395 20.622 59.9928 20.2812 59.6476 20.0689C59.3023 19.8566 58.8869 19.7901 58.4927 19.8841C58.0984 19.978 57.7577 20.2248 57.5453 20.57C54.7098 25.1778 55.7517 28.6275 56.9587 32.6211L57.0503 32.9267C57.2306 33.5194 57.3956 34.0389 57.5484 34.5064C58.3031 36.8317 58.5323 37.6108 57.6095 40.4219C56.4555 40.6319 55.385 41.1661 54.5234 41.9619C54.2378 42.2408 54.0726 42.6204 54.0633 43.0195C54.054 43.4186 54.2013 43.8054 54.4736 44.0973C54.7459 44.3892 55.1217 44.5629 55.5204 44.5813C55.9192 44.5996 56.3093 44.4612 56.6073 44.1956ZM76.0559 35.0747C76.9633 35.0775 77.8599 34.8781 78.6806 34.4911C79.0473 34.3185 79.3304 34.0073 79.4677 33.6259C79.6049 33.2446 79.585 32.8243 79.4124 32.4576C79.2398 32.0909 78.9286 31.8078 78.5472 31.6706C78.1659 31.5334 77.7456 31.5532 77.3789 31.7258C76.6278 32.069 75.7748 32.1158 74.9907 31.8569C74.2065 31.598 73.5491 31.0524 73.1501 30.3294C73.0592 30.1459 72.9325 29.9824 72.7772 29.8488C72.622 29.7152 72.4415 29.6142 72.2464 29.5518C72.0514 29.4893 71.8457 29.4667 71.6418 29.4854C71.4378 29.504 71.2397 29.5634 71.0592 29.6601C70.8786 29.7569 70.7194 29.8889 70.5909 30.0484C70.4624 30.2079 70.3673 30.3916 70.3112 30.5886C70.2552 30.7855 70.2393 30.9918 70.2645 31.195C70.2897 31.3983 70.3556 31.5944 70.4581 31.7717C71.0081 32.7983 71.827 33.6081 72.7803 34.1703C71.1395 38.1578 72.0714 42.3928 72.8323 44.6386C72.8905 44.8357 72.9878 45.019 73.1185 45.1776C73.2492 45.3362 73.4105 45.4668 73.5928 45.5616C73.7752 45.6563 73.9748 45.7134 74.1796 45.7292C74.3845 45.7451 74.5905 45.7194 74.7852 45.6538C74.98 45.5882 75.1595 45.484 75.313 45.3474C75.4665 45.2109 75.5909 45.0447 75.6788 44.8589C75.7666 44.6731 75.816 44.4715 75.8241 44.2662C75.8322 44.0609 75.7988 43.856 75.7259 43.6639C75.2126 42.1422 74.2164 38.2983 75.7198 35.0289C75.8359 35.035 75.9428 35.0747 76.0559 35.0747ZM90.7134 63.8856C90.7017 63.6849 90.6504 63.4886 90.5623 63.3079C90.4742 63.1273 90.3511 62.9659 90.2002 62.8332C90.0493 62.7004 89.8735 62.599 89.6831 62.5347C89.4927 62.4704 89.2914 62.4445 89.0909 62.4586C88.3582 62.5092 87.6228 62.4146 86.9268 62.1803C86.2308 61.9459 85.588 61.5763 85.0352 61.0928C84.4824 60.6093 84.0306 60.0214 83.7056 59.3628C83.3807 58.7042 83.1891 57.9879 83.1417 57.255C83.1074 56.8533 82.9184 56.4805 82.6145 56.2155C82.3107 55.9504 81.9158 55.8137 81.5131 55.8342C81.1093 55.8632 80.7333 56.0507 80.4671 56.3557C80.201 56.6608 80.0662 57.0588 80.0923 57.4628C80.2176 59.2656 80.9051 60.8911 81.9501 62.2142C79.4934 65.1047 76.2759 65.9267 74.4823 66.1375C72.8964 66.327 71.5092 66.165 69.9051 65.9756C68.4353 65.8075 66.7731 65.615 64.7167 65.6761L64.7014 65.6792C64.6403 64.8053 64.4326 63.5311 63.7695 62.4708C63.5416 62.1569 63.2029 61.9412 62.822 61.8673C62.4411 61.7935 62.0463 61.8671 61.7176 62.0732C61.3888 62.2793 61.1506 62.6025 61.0511 62.9775C60.9516 63.3525 60.9982 63.7514 61.1814 64.0933C61.5909 64.7503 61.6673 65.7983 61.6673 66.3086C60.1273 66.8617 58.7951 67.6745 57.5912 68.4597C55.4401 69.8592 53.7442 70.9653 51.1928 70.3908C48.8828 69.8622 46.5698 69.7553 44.6081 70.0303C44.3026 69.2633 43.8198 68.3467 43.0742 67.6408C42.7797 67.3625 42.3866 67.2125 41.9814 67.224C41.5763 67.2355 41.1923 67.4074 40.9139 67.702C40.6356 67.9965 40.4856 68.3896 40.4971 68.7947C40.5086 69.1999 40.6805 69.5839 40.9751 69.8622C41.2378 70.1097 41.4456 70.4703 41.6137 70.8308C38.2434 72.2181 36.5537 74.5372 36.4742 74.6503C36.3121 74.8784 36.216 75.1468 36.1963 75.426C36.1766 75.7052 36.2341 75.9844 36.3625 76.233C36.4909 76.4817 36.6853 76.6902 36.9244 76.8357C37.1635 76.9813 37.438 77.0582 37.7178 77.0581C37.9593 77.0587 38.1976 77.0023 38.4131 76.8934C38.6287 76.7846 38.8155 76.6264 38.9584 76.4317C38.9737 76.4072 40.6512 74.1614 43.9603 73.2539C45.6714 72.7833 48.1251 72.8231 50.5176 73.367C51.1867 73.5197 51.807 73.5717 52.4089 73.5808C52.6931 74.2469 52.8031 75.0383 52.8184 75.3317C52.841 75.7211 53.0113 76.0872 53.2947 76.3552C53.5781 76.6232 53.9531 76.773 54.3431 76.7739L54.4256 76.7708C54.8288 76.7495 55.2071 76.5694 55.4779 76.27C55.7488 75.9705 55.89 75.5761 55.8709 75.1728C55.8199 74.4611 55.6866 73.7577 55.4737 73.0767C56.8823 72.5664 58.1076 71.7689 59.2595 71.0203C61.0073 69.8806 62.6603 68.8019 64.8206 68.7317C66.6295 68.6675 68.1206 68.8417 69.5598 69.0097C71.0081 69.1778 72.432 69.2878 74.0026 69.1961C74.2806 69.9692 74.2592 71.002 74.2164 71.3472C74.1906 71.5624 74.2105 71.7805 74.2749 71.9874C74.3393 72.1943 74.4468 72.3853 74.5902 72.5477C74.7336 72.7102 74.9097 72.8405 75.107 72.93C75.3043 73.0196 75.5184 73.0665 75.7351 73.0675C76.1054 73.0669 76.463 72.9318 76.7412 72.6873C77.0195 72.4428 77.1994 72.1056 77.2476 71.7383C77.3595 70.7362 77.2985 69.7223 77.0673 68.7408C79.8551 68.0012 82.3533 66.4341 84.2326 64.2461C85.7474 65.1818 87.5158 65.6228 89.2925 65.5081C89.4924 65.4949 89.6877 65.4424 89.8672 65.3537C90.0468 65.265 90.2071 65.1418 90.3391 64.9912C90.471 64.8405 90.572 64.6653 90.6362 64.4756C90.7004 64.2859 90.7267 64.0854 90.7134 63.8856Z" fill="#EA596E"/>
</svg>
