<svg width="30" height="30" viewBox="0 0 30 30" fill="none" xmlns="http://www.w3.org/2000/svg">
<path d="M22.245 5V2.73375V2.68C22.245 1.2 20.9359 0 19.3214 0H10.6786C10.2897 8.06049e-05 9.90473 0.0713567 9.54627 0.209647C9.1878 0.347937 8.86308 0.550456 8.59113 0.805324C8.31919 1.06019 8.10552 1.36228 7.96264 1.69385C7.81976 2.02543 7.75056 2.37983 7.75909 2.73625V2.73375V5H0V7.5H0.784091C1.05136 7.52875 1.29136 7.62375 1.48636 7.7675L1.48364 7.765C1.64591 7.96125 1.76045 8.1975 1.80955 8.455L1.81091 8.465L3.42955 27.3475C3.55773 29.6475 3.55773 29.995 6.49773 29.995H23.4914C26.4368 29.995 26.4368 29.6512 26.5595 27.3537L28.1782 8.47875C28.2273 8.2075 28.3418 7.9675 28.5082 7.76375L28.5055 7.7675C28.7045 7.62115 28.9447 7.52929 29.1982 7.5025H29.9891V5.0025H22.2341L22.245 5ZM9.54545 2.73375C9.54545 1.98375 10.2095 1.56125 11.0536 1.56125H18.8727C19.7155 1.56125 20.4573 1.99125 20.4573 2.73375V5H9.54818L9.54545 2.73375ZM8.82136 25L7.94864 10H9.67909L10.5736 25H8.82136ZM15.9464 25H14.0727V10H15.9477L15.9464 25ZM21.1964 25H19.4577L20.3523 10H22.0827L21.1964 25Z" fill="white"/>
</svg>
