<svg width="110" height="110" viewBox="0 0 110 110" fill="none" xmlns="http://www.w3.org/2000/svg">
<rect width="110" height="110" rx="50" fill="#0C0C0C"/>
<path fill-rule="evenodd" clip-rule="evenodd" d="M110 0H0V110H110V0ZM64.1667 9.16667H32.0833C29.6522 9.16667 27.3206 10.1324 25.6015 11.8515C23.8824 13.5706 22.9167 15.9022 22.9167 18.3333V91.6667C22.9167 94.0978 23.8824 96.4294 25.6015 98.1485C27.3206 99.8676 29.6522 100.833 32.0833 100.833H77.9167C80.3478 100.833 82.6794 99.8676 84.3985 98.1485C86.1176 96.4294 87.0833 94.0978 87.0833 91.6667V34.375L64.1667 9.16667ZM34.375 73.3333C33.7672 73.3333 33.1843 73.5748 32.7545 74.0045C32.3248 74.4343 32.0833 75.0172 32.0833 75.625C32.0833 76.2328 32.3248 76.8157 32.7545 77.2455C33.1843 77.6752 33.7672 77.9167 34.375 77.9167H75.625C76.2328 77.9167 76.8157 77.6752 77.2455 77.2455C77.6752 76.8157 77.9167 76.2328 77.9167 75.625C77.9167 75.0172 77.6752 74.4343 77.2455 74.0045C76.8157 73.5748 76.2328 73.3333 75.625 73.3333H34.375ZM32.0833 84.7917C32.0833 84.1839 32.3248 83.601 32.7545 83.1712C33.1843 82.7414 33.7672 82.5 34.375 82.5H61.875C62.4828 82.5 63.0657 82.7414 63.4955 83.1712C63.9252 83.601 64.1667 84.1839 64.1667 84.7917C64.1667 85.3995 63.9252 85.9824 63.4955 86.4121C63.0657 86.8419 62.4828 87.0833 61.875 87.0833H34.375C33.7672 87.0833 33.1843 86.8419 32.7545 86.4121C32.3248 85.9824 32.0833 85.3995 32.0833 84.7917ZM47.9485 35.7844C47.7745 35.3669 47.4807 35.0102 47.1043 34.7593C46.7279 34.5084 46.2857 34.3745 45.8333 34.3745C45.381 34.3745 44.9387 34.5084 44.5623 34.7593C44.1859 35.0102 43.8922 35.3669 43.7181 35.7844L35.1427 56.3635C35.129 56.3953 35.116 56.4274 35.1038 56.4598L32.2598 63.2844C32.0258 63.8454 32.0242 64.4763 32.2555 65.0385C32.4867 65.6006 32.9317 66.0479 33.4927 66.2819C34.0537 66.5159 34.6847 66.5174 35.2468 66.2862C35.8089 66.055 36.2562 65.6099 36.4902 65.049L38.7681 59.5833H52.8985L55.1765 65.049C55.4105 65.6099 55.8577 66.055 56.4199 66.2862C56.982 66.5174 57.613 66.5159 58.174 66.2819C58.7349 66.0479 59.18 65.6006 59.4112 65.0385C59.6424 64.4763 59.6409 63.8454 59.4069 63.2844L56.5629 56.4598C56.5506 56.4274 56.5376 56.3953 56.524 56.3635L47.9485 35.7844ZM45.8333 42.625L50.9896 55H40.6771L45.8333 42.625ZM68.75 48.125C69.3578 48.125 69.9407 48.3664 70.3705 48.7962C70.8002 49.226 71.0417 49.8089 71.0417 50.4167V55H75.625C76.2328 55 76.8157 55.2414 77.2455 55.6712C77.6752 56.101 77.9167 56.6839 77.9167 57.2917C77.9167 57.8995 77.6752 58.4824 77.2455 58.9121C76.8157 59.3419 76.2328 59.5833 75.625 59.5833H71.0417V64.1667C71.0417 64.7745 70.8002 65.3574 70.3705 65.7871C69.9407 66.2169 69.3578 66.4583 68.75 66.4583C68.1422 66.4583 67.5593 66.2169 67.1295 65.7871C66.6998 65.3574 66.4583 64.7745 66.4583 64.1667V59.5833H61.875C61.2672 59.5833 60.6843 59.3419 60.2545 58.9121C59.8248 58.4824 59.5833 57.8995 59.5833 57.2917C59.5833 56.6839 59.8248 56.101 60.2545 55.6712C60.6843 55.2414 61.2672 55 61.875 55H66.4583V50.4167C66.4583 49.8089 66.6998 49.226 67.1295 48.7962C67.5593 48.3664 68.1422 48.125 68.75 48.125ZM64.1667 16.0417L80.2083 34.375H66.4583C65.8505 34.375 65.2677 34.1336 64.8379 33.7038C64.4081 33.274 64.1667 32.6911 64.1667 32.0833V16.0417Z" fill="white"/>
</svg>
