<svg width="45" height="45" viewBox="0 0 45 45" fill="none" xmlns="http://www.w3.org/2000/svg">
<path d="M43.2 0H1.8C0.804375 0 0 0.804375 0 1.8V43.2C0 44.1956 0.804375 45 1.8 45H43.2C44.1956 45 45 44.1956 45 43.2V1.8C45 0.804375 44.1956 0 43.2 0ZM38.0025 13.1344H34.4081C31.59 13.1344 31.0444 14.4731 31.0444 16.4419V20.7787H37.7719L36.8944 27.5681H31.0444V45H24.03V27.5737H18.1631V20.7787H24.03V15.7725C24.03 9.96187 27.5794 6.795 32.7656 6.795C35.2519 6.795 37.3838 6.98063 38.0081 7.065V13.1344H38.0025Z" fill="#2B8BE4"/>
</svg>
