<svg width="45" height="42" viewBox="0 0 45 42" fill="none" xmlns="http://www.w3.org/2000/svg">
<path d="M40.5 36.75H36V13.7812L22.5 23.625L9 13.7812V36.75H4.5V5.25H7.2L22.5 16.4062L37.8 5.25H40.5V36.75ZM40.5 0H4.5C2.0025 0 0 2.33625 0 5.25V36.75C0 38.1424 0.474106 39.4777 1.31802 40.4623C2.16193 41.4469 3.30653 42 4.5 42H40.5C41.6935 42 42.8381 41.4469 43.682 40.4623C44.5259 39.4777 45 38.1424 45 36.75V5.25C45 3.85761 44.5259 2.52226 43.682 1.53769C42.8381 0.553123 41.6935 0 40.5 0Z" fill="#D1583D"/>
</svg>
