<svg width="50" height="50" viewBox="0 0 50 50" fill="none" xmlns="http://www.w3.org/2000/svg">
<path d="M12.6538 50C16.4616 50 19.7543 48.6405 22.4295 45.9614C25.2372 43.1497 26.6973 38.8157 26.3073 34.7096L47.7188 13.2674C49.1805 11.8006 50.0009 9.81278 50 7.74058C49.9991 5.66838 49.1768 3.68129 47.7138 2.21582C44.7686 -0.738608 39.6282 -0.738608 36.683 2.21582L14.4714 24.4592C9.68857 24.8823 4.95324 28.2674 4.95324 34.2714C4.95324 35.03 5.00574 35.7436 5.05824 36.4246C5.25826 39.006 5.33076 39.975 1.38048 41.9529C0.992476 42.1479 0.661772 42.4405 0.420847 42.8021C0.179922 43.1637 0.0370608 43.5819 0.0062945 44.0155C-0.0244718 44.4491 0.0579147 44.8833 0.245363 45.2754C0.432811 45.6674 0.718874 46.004 1.07546 46.2519C1.30047 46.4021 6.55835 50 12.6538 50C12.6513 50 12.6513 50 12.6538 50ZM40.2183 5.75363C40.7517 5.24113 41.4627 4.95538 42.2019 4.95632C42.9412 4.95725 43.6514 5.24479 44.1836 5.75864C44.4436 6.01904 44.6499 6.32818 44.7906 6.66842C44.9314 7.00866 45.0038 7.37334 45.0038 7.74161C45.0038 8.10989 44.9314 8.47456 44.7906 8.8148C44.6499 9.15504 44.4436 9.46419 44.1836 9.72459L25.0022 28.9334L21.0369 24.9624L40.2183 5.75363ZM10.0461 36.0366C10.0011 35.4757 9.95359 34.8898 9.95359 34.2689C9.95359 30.4006 13.5664 29.3791 15.479 29.3791C16.3691 29.3791 17.2266 29.5618 17.8892 29.8948C20.2518 31.0841 21.0394 33.1322 21.2819 34.642C21.7244 37.3711 20.7394 40.5709 18.8917 42.4211C17.1641 44.1512 15.124 44.9925 12.6538 44.9925H12.6513C10.7762 44.9925 8.95352 44.5018 7.46592 43.9234C10.1711 41.4872 10.2686 38.9434 10.0461 36.0366Z" fill="#178BF7"/>
</svg>
