<svg width="25" height="27" viewBox="0 0 25 27" fill="none" xmlns="http://www.w3.org/2000/svg">
<path d="M6.89307 20.001C7.92961 20.9961 8.873 22.0444 9.71641 23.1381C10.4365 24.1668 10.7367 24.8643 11.263 26.1037C11.5857 26.7885 11.8774 26.9929 12.5046 26.9929C13.188 26.9929 13.498 26.6452 13.7376 26.1075C14.2351 24.937 14.6254 24.0437 15.2412 23.1997C16.4496 21.5701 17.9512 20.122 19.4266 18.7303C19.826 18.3364 22.4084 16.0417 23.571 14.2311C23.571 14.2311 24.9999 12.2421 24.9999 9.46438C24.9999 6.86605 23.5907 5.06396 23.5907 5.06396L19.5336 5.8825L17.0697 10.7713L16.4602 11.4454L16.3383 11.5675L16.1762 11.7204L15.8916 11.9646L15.485 12.2708L13.2909 13.6174L7.80557 16.0035L6.89307 20.001Z" fill="#34A853"/>
<path d="M1.23164 13.8966C2.57041 16.2003 5.15205 18.2254 6.89873 20.0025L16.1762 11.7235C16.1762 11.7235 14.8691 13.0112 12.4982 13.0112C9.85733 13.0112 7.72383 11.4225 7.72383 9.4192C7.72383 8.04543 8.8209 7.10168 8.8209 7.10168L2.52315 8.37296L1.23164 13.8966V13.8966Z" fill="#FBBC04"/>
<path d="M16.2798 0.425733C19.361 1.17415 21.9983 2.74538 23.5936 5.0623L16.179 11.7187C16.179 11.7187 17.2761 10.7579 17.2761 9.39267C17.2761 7.34273 14.9848 5.81131 12.5095 5.81131C10.1688 5.81131 8.82442 7.09693 8.82442 7.09693V2.90348L16.2798 0.425659V0.425733Z" fill="#4285F4"/>
<path d="M2.93115 3.36691C4.77148 1.70814 8.00977 0 12.4742 0C14.6402 0 16.2721 0.428396 16.2721 0.428396L8.81738 7.10064H3.53564L2.93115 3.36698V3.36691Z" fill="#1A73E8"/>
<path d="M1.23164 13.8967C1.23164 13.8967 0 12.0797 0 9.4474C0 6.95949 1.28379 4.78478 2.93115 3.36694L8.82158 7.10126L1.23164 13.8967Z" fill="#EA4335"/>
</svg>
