<svg width="94" height="94" viewBox="0 0 94 94" fill="none" xmlns="http://www.w3.org/2000/svg">
<path d="M44.3889 11.9406L15.6667 28.3958V64.2986L44.3889 80.7538V11.9406Z" fill="#8967AA"/>
<path d="M49.6111 11.9406L78.3333 28.3958V64.2986L49.6111 80.7538V11.9406Z" fill="#F4AA41"/>
<path d="M23.5 34.9366L30.0278 31.3333L36.5556 34.9366V61.3611L30.0278 57.7578L23.5 61.3611V34.9366Z" fill="#B399C8"/>
<path d="M15.6666 28.3958L15.0178 27.2626C14.8182 27.3769 14.6524 27.5419 14.537 27.7409C14.4217 27.9399 14.361 28.1658 14.3611 28.3958H15.6666ZM44.3889 11.9406H45.6944C45.6945 11.7118 45.6344 11.487 45.5202 11.2887C45.406 11.0904 45.2417 10.9256 45.0437 10.8108C44.8458 10.6961 44.6211 10.6353 44.3923 10.6347C44.1635 10.6341 43.9386 10.6936 43.74 10.8074L44.3889 11.9406ZM15.6666 64.2986H14.3611C14.361 64.5286 14.4217 64.7545 14.537 64.9535C14.6524 65.1525 14.8182 65.3175 15.0178 65.4318L15.6666 64.2986ZM44.3889 80.7538L43.74 81.887C43.9386 82.0008 44.1635 82.0603 44.3923 82.0597C44.6211 82.0591 44.8458 81.9983 45.0437 81.8836C45.2417 81.7688 45.406 81.604 45.5202 81.4057C45.6344 81.2074 45.6945 80.9826 45.6944 80.7538H44.3889ZM78.3333 64.2986L78.9822 65.4318C79.1817 65.3175 79.3476 65.1525 79.4629 64.9535C79.5782 64.7545 79.6389 64.5286 79.6389 64.2986H78.3333ZM49.6111 80.7538H48.3055C48.3055 80.9826 48.3656 81.2074 48.4798 81.4057C48.594 81.604 48.7583 81.7688 48.9562 81.8836C49.1542 81.9983 49.3788 82.0591 49.6076 82.0597C49.8364 82.0603 50.0614 82.0008 50.2599 81.887L49.6111 80.7538ZM78.3333 28.3958H79.6389C79.6389 28.1658 79.5782 27.9399 79.4629 27.7409C79.3476 27.5419 79.1817 27.3769 78.9822 27.2626L78.3333 28.3958ZM49.6111 11.9406L50.2599 10.8074C50.0614 10.6936 49.8364 10.6341 49.6076 10.6347C49.3788 10.6353 49.1542 10.6961 48.9562 10.8108C48.7583 10.9256 48.594 11.0904 48.4798 11.2887C48.3656 11.487 48.3055 11.7118 48.3055 11.9406H49.6111ZM16.3155 29.529L45.0377 13.0738L43.74 10.8074L15.0178 27.2626L16.3155 29.529ZM16.9722 64.2986V28.3958H14.3611V64.2986H16.9722ZM45.0377 79.6206L16.3155 63.1654L15.0178 65.4318L43.74 81.887L45.0377 79.6206ZM45.6944 80.7538V11.9406H43.0833V80.7538H45.6944ZM77.6844 63.1654L48.9622 79.6219L50.2599 81.887L78.9822 65.4318L77.6844 63.1654ZM77.0277 28.3958V64.2986H79.6389V28.3958H77.0277ZM48.9622 13.0738L77.6844 29.529L78.9822 27.2626L50.2599 10.8074L48.9622 13.0738ZM48.3055 11.9406V80.7538H50.9166V11.9406H48.3055Z" fill="black"/>
<path d="M23.5 34.9366L30.0278 31.3333L36.5556 34.9366V61.3611L30.0278 57.7578L23.5 61.3611V34.9366Z" stroke="black" stroke-width="2" stroke-linejoin="round"/>
<path d="M40.4722 20.9607C37.8234 21.2576 35.3541 22.4459 33.4694 24.3306C31.5847 26.2153 30.3964 28.6845 30.0995 31.3333" stroke="black" stroke-width="2" stroke-linecap="round"/>
<path d="M61.3611 39.1666C62.8032 39.1666 63.9722 37.9976 63.9722 36.5555C63.9722 35.1134 62.8032 33.9444 61.3611 33.9444C59.919 33.9444 58.75 35.1134 58.75 36.5555C58.75 37.9976 59.919 39.1666 61.3611 39.1666Z" stroke="black" stroke-width="2"/>
<path d="M61.3611 57.4444C62.8032 57.4444 63.9722 56.2754 63.9722 54.8333C63.9722 53.3912 62.8032 52.2222 61.3611 52.2222C59.919 52.2222 58.75 53.3912 58.75 54.8333C58.75 56.2754 59.919 57.4444 61.3611 57.4444Z" stroke="black" stroke-width="2"/>
<path d="M61.3611 28.7222C62.8032 28.7222 63.9722 27.5532 63.9722 26.1111C63.9722 24.669 62.8032 23.5 61.3611 23.5C59.919 23.5 58.75 24.669 58.75 26.1111C58.75 27.5532 59.919 28.7222 61.3611 28.7222Z" stroke="black" stroke-width="2"/>
<path d="M71.8055 56.1388C73.2476 56.1388 74.4166 54.9698 74.4166 53.5277C74.4166 52.0857 73.2476 50.9166 71.8055 50.9166C70.3634 50.9166 69.1944 52.0857 69.1944 53.5277C69.1944 54.9698 70.3634 56.1388 71.8055 56.1388Z" stroke="black" stroke-width="2"/>
<path d="M71.8055 45.6944C73.2476 45.6944 74.4166 44.5254 74.4166 43.0833C74.4166 41.6412 73.2476 40.4722 71.8055 40.4722C70.3634 40.4722 69.1944 41.6412 69.1944 43.0833C69.1944 44.5254 70.3634 45.6944 71.8055 45.6944Z" stroke="black" stroke-width="2"/>
<path d="M71.8055 35.25C73.2476 35.25 74.4166 34.081 74.4166 32.6389C74.4166 31.1968 73.2476 30.0278 71.8055 30.0278C70.3634 30.0278 69.1944 31.1968 69.1944 32.6389C69.1944 34.081 70.3634 35.25 71.8055 35.25Z" stroke="black" stroke-width="2"/>
<path d="M49.6111 39.1666H52.2222L57.4444 44.3888H62.6666L69.1944 50.9166" stroke="black" stroke-width="2" stroke-linecap="round" stroke-linejoin="round"/>
<path d="M65.9305 48.9583L69.1944 45.6944" stroke="black" stroke-width="2"/>
<path d="M71.8055 40.4722V35.25" stroke="black" stroke-width="2"/>
<path d="M49.6111 20.8889H54.8333L58.75 24.8055" stroke="black" stroke-width="2" stroke-linecap="round" stroke-linejoin="round"/>
<path d="M61.3611 62.6666C62.8032 62.6666 63.9722 63.8357 63.9722 65.2777C63.9722 66.7198 62.8032 67.8889 61.3611 67.8889C59.919 67.8889 58.75 66.7198 58.75 65.2777C58.75 63.8357 59.919 62.6666 61.3611 62.6666Z" stroke="black" stroke-width="2"/>
<path d="M49.6111 70.5H54.8333L58.75 66.5833" stroke="black" stroke-width="2" stroke-linecap="round" stroke-linejoin="round"/>
<path d="M61.3611 28.7222V33.9444" stroke="black" stroke-width="2"/>
<path d="M61.3611 57.4444V62.6666" stroke="black" stroke-width="2"/>
</svg>
