<svg width="94" height="94" viewBox="0 0 94 94" fill="none" xmlns="http://www.w3.org/2000/svg">
<g clip-path="url(#clip0_13_73)">
<path d="M80.6344 58.3094L91.3563 69.4719L44.2094 93.1188C44.2094 93.1188 38.0406 96.2031 35.1031 91.3563C23.3531 72.2625 80.6344 58.3094 80.6344 58.3094Z" fill="#256382"/>
<path d="M42.8875 79.1656C42.8875 79.1656 33.9281 82.5437 35.5438 88.8594C37.3063 95.4687 44.5031 91.5031 44.5031 91.5031L89.3 69.4719C89.3 69.4719 86.8031 62.4219 91.3563 57.7219L42.8875 79.1656Z" fill="#D9E3E8"/>
<path d="M50.525 13.0719L93.4125 57.2813L42.7406 78.2844L10.2812 24.5282L50.525 13.0719Z" fill="#42ADE2"/>
<path d="M89.1531 62.5688L59.1906 75.4938L88.5656 61.2469L89.1531 62.5688Z" fill="#94989B"/>
<path d="M88.7125 66.3875L56.8406 80.3406L88.125 65.0656L88.7125 66.3875Z" fill="#94989B"/>
<path d="M89.0062 68.5906L48.3219 87.2438L88.4188 67.2687L89.0062 68.5906Z" fill="#94989B"/>
<path d="M34.9563 91.2094C29.9625 80.1937 42.7406 78.2844 42.7406 78.2844L10.2813 24.5281C10.2813 24.5281 2.9375 24.3813 2.9375 32.4594C2.9375 35.8375 4.40625 38.3344 4.40625 38.3344L34.9563 91.2094Z" fill="#428BC1"/>
<path d="M12.7781 47.2938L2.05625 58.4563L49.2031 82.1031C49.2031 82.1031 55.3719 85.1875 58.3094 80.3406C70.0594 61.2469 12.7781 47.2938 12.7781 47.2938Z" fill="#547725"/>
<path d="M50.3781 68.15C50.3781 68.15 59.3375 71.5281 57.7219 77.8437C55.9594 84.4531 48.9094 80.4875 48.9094 80.4875L4.1125 58.4562C4.1125 58.4562 6.60938 51.4062 2.05625 46.7062L50.3781 68.15Z" fill="#D9E3E8"/>
<path d="M42.8875 2.05627L0 46.2657L50.6719 67.2688L83.1312 13.5125L42.8875 2.05627Z" fill="#83BF4F"/>
<path d="M4.7 50.2313L34.075 64.4781L4.1125 51.5531L4.7 50.2313Z" fill="#94989B"/>
<path d="M5.2875 54.05L36.425 69.325L4.55312 55.3719L5.2875 54.05Z" fill="#94989B"/>
<path d="M4.99375 56.2531L44.9437 76.2281L4.25938 57.575L4.99375 56.2531Z" fill="#94989B"/>
<path d="M58.4562 80.1937C63.45 69.1781 50.6719 67.2688 50.6719 67.2688L83.1312 13.5125C83.1312 13.5125 90.475 13.3656 90.475 21.4438C90.475 24.8219 89.0062 27.3188 89.0062 27.3188L58.4562 80.1937Z" fill="#699635"/>
<path d="M83.2781 38.1875L92.2375 47.5875L52.4344 67.4156C52.4344 67.4156 47.1469 69.9125 44.65 65.9469C34.9562 49.9375 83.2781 38.1875 83.2781 38.1875Z" fill="#962C2C"/>
<path d="M51.4063 55.8125C51.4063 55.8125 43.7688 58.6031 45.2375 64.0375C46.7063 69.6188 52.7281 66.2406 52.7281 66.2406L90.475 47.5875C90.475 47.5875 88.4187 41.7125 92.2375 37.7469L51.4063 55.8125Z" fill="#D9E3E8"/>
<path d="M57.8688 0L94 37.3062L51.2594 55.0781L23.7937 9.69375L57.8688 0Z" fill="#ED4C5C"/>
<path d="M58.8969 8.51874L65.9469 16.3031L39.95 26.1437L33.7812 16.1562L58.8969 8.51874Z" fill="white"/>
<path d="M90.475 41.8593L65.2125 52.5812L89.8875 40.5375L90.475 41.8593Z" fill="#94989B"/>
<path d="M90.1813 45.0906L63.1562 56.6937L89.5938 43.7687L90.1813 45.0906Z" fill="#94989B"/>
<path d="M90.475 46.8531L56.1062 62.5687L89.7406 45.5312L90.475 46.8531Z" fill="#94989B"/>
<path d="M44.7969 65.9469C40.6844 56.6937 51.4062 55.0781 51.4062 55.0781L23.7938 9.69374C23.7938 9.69374 17.4781 9.54686 17.4781 16.3031C17.4781 19.0937 18.6531 21.2969 18.6531 21.2969L44.7969 65.9469Z" fill="#C94747"/>
</g>
<defs>
<clipPath id="clip0_13_73">
<rect width="94" height="94" fill="white"/>
</clipPath>
</defs>
</svg>
