<svg width="32" height="32" viewBox="0 0 32 32" fill="none" xmlns="http://www.w3.org/2000/svg">
<path d="M19.484 7.93701V13.414L21.4 14.619C21.4692 14.6342 21.5408 14.6342 21.61 14.619L29.848 9.06501C29.842 8.79546 29.7434 8.5362 29.5687 8.33078C29.3941 8.12537 29.1541 7.98632 28.889 7.93701H19.484Z" fill="#0072C6"/>
<path d="M19.484 15.4571L21.231 16.6571C21.3128 16.7069 21.4067 16.7332 21.5025 16.7332C21.5983 16.7332 21.6922 16.7069 21.774 16.6571C21.474 16.8381 29.847 11.2791 29.847 11.2791V21.3451C29.8688 21.549 29.8458 21.7553 29.7796 21.9495C29.7134 22.1436 29.6056 22.3209 29.4636 22.4691C29.3217 22.6172 29.1491 22.7325 28.958 22.8069C28.7668 22.8814 28.5617 22.9132 28.357 22.9001H19.483V15.4571H19.484Z" fill="#0072C6"/>
<path d="M10.44 12.9319C10.1497 12.9305 9.86449 13.0077 9.6145 13.1552C9.36452 13.3028 9.15909 13.5152 9.02 13.7699C8.64012 14.4453 8.45785 15.2139 8.494 15.9879C8.45452 16.7604 8.63705 17.528 9.02 18.1999C9.15851 18.4442 9.35888 18.6478 9.60096 18.7901C9.84305 18.9324 10.1183 19.0085 10.3992 19.0107C10.68 19.013 10.9564 18.9413 11.2007 18.8028C11.4451 18.6643 11.6486 18.464 11.791 18.2219C12.1698 17.553 12.3485 16.7895 12.306 16.0219C12.3494 15.2303 12.1765 14.4418 11.806 13.7409C11.6736 13.4945 11.4764 13.2888 11.2356 13.1463C10.9949 13.0037 10.7198 12.9296 10.44 12.9319Z" fill="#0072C6"/>
<path d="M2.153 5.155V26.582L18.453 30V2L2.153 5.155ZM13.061 19.491C12.7561 19.9209 12.3506 20.2696 11.88 20.5068C11.4094 20.744 10.8879 20.8626 10.361 20.852C9.84735 20.8611 9.33909 20.7461 8.87945 20.5166C8.41981 20.2871 8.0224 19.95 7.721 19.534C7.00619 18.536 6.64861 17.3262 6.706 16.1C6.64519 14.8136 7.00924 13.543 7.742 12.484C8.05077 12.0459 8.46257 11.6906 8.9411 11.4492C9.41963 11.2078 9.95019 11.0879 10.486 11.1C10.9959 11.0898 11.5006 11.2049 11.9557 11.4352C12.4107 11.6655 12.8023 12.004 13.096 12.421C13.8037 13.4406 14.1552 14.6653 14.096 15.905C14.1583 17.182 13.7942 18.4436 13.061 19.491Z" fill="#0072C6"/>
</svg>
