<svg width="30" height="30" viewBox="0 0 30 30" fill="none" xmlns="http://www.w3.org/2000/svg">
<rect width="30" height="30" fill="white"/>
<path d="M20.7325 3.74997C21.2013 3.28129 21.8371 3.01801 22.5 3.01801C23.1629 3.01801 23.7987 3.28129 24.2675 3.74997L26.25 5.73247C26.7187 6.20129 26.982 6.83706 26.982 7.49997C26.982 8.16288 26.7187 8.79865 26.25 9.26747L16.25 19.2675C15.7813 19.7363 15.1455 19.9998 14.4825 20H12.5C11.837 20 11.2011 19.7366 10.7322 19.2677C10.2634 18.7989 10 18.163 10 17.5V15.5175C10.0001 14.8545 10.2636 14.2187 10.7325 13.75L20.7325 3.74997ZM20.5175 7.49997L22.5 9.48247L24.4825 7.49997L25.3662 8.38372L22.5 5.51747L20.5175 7.49997ZM20.7325 11.25L18.75 9.26747L12.5 15.5175V17.5H14.4825L20.7325 11.25ZM3.75 8.74997C3.75 7.75541 4.14509 6.80158 4.84835 6.09832C5.55161 5.39506 6.50544 4.99997 7.5 4.99997H11.25C11.5815 4.99997 11.8995 5.13167 12.1339 5.36609C12.3683 5.60051 12.5 5.91845 12.5 6.24997C12.5 6.58149 12.3683 6.89943 12.1339 7.13385C11.8995 7.36828 11.5815 7.49997 11.25 7.49997H7.5C7.16848 7.49997 6.85054 7.63167 6.61612 7.86609C6.3817 8.10051 6.25 8.41845 6.25 8.74997V22.5C6.25 22.8315 6.3817 23.1494 6.61612 23.3839C6.85054 23.6183 7.16848 23.75 7.5 23.75H21.25C21.5815 23.75 21.8995 23.6183 22.1339 23.3839C22.3683 23.1494 22.5 22.8315 22.5 22.5V18.75C22.5 18.4185 22.6317 18.1005 22.8661 17.8661C23.1005 17.6317 23.4185 17.5 23.75 17.5C24.0815 17.5 24.3995 17.6317 24.6339 17.8661C24.8683 18.1005 25 18.4185 25 18.75V22.5C25 23.4945 24.6049 24.4484 23.9017 25.1516C23.1984 25.8549 22.2446 26.25 21.25 26.25H7.5C6.50544 26.25 5.55161 25.8549 4.84835 25.1516C4.14509 24.4484 3.75 23.4945 3.75 22.5V8.74997Z" fill="black"/>
</svg>
