<svg width="45" height="45" viewBox="0 0 45 45" fill="none" xmlns="http://www.w3.org/2000/svg">
<path d="M22.5 9.12054C15.1975 9.12054 9.26116 15.0569 9.25112 22.3594C9.25112 24.8605 9.95424 27.3013 11.2801 29.4007L11.5915 29.9029L10.2556 34.7846L15.2679 33.4688L15.75 33.76C17.779 34.9654 20.1094 35.6083 22.49 35.6083H22.5C29.7924 35.6083 35.8895 29.6719 35.8895 22.3694C35.8895 18.8337 34.3627 15.5089 31.8616 13.0078C29.3504 10.4967 26.0357 9.12054 22.5 9.12054ZM30.2846 28.0446C29.9531 28.9788 28.3661 29.8225 27.6027 29.933C26.3371 30.1239 25.3527 30.0234 22.8315 28.9386C18.8438 27.2109 16.2321 23.1931 16.0312 22.9319C15.8304 22.6708 14.404 20.7723 14.404 18.8136C14.404 16.8549 15.4286 15.8906 15.8002 15.4888C16.1618 15.0871 16.5937 14.9866 16.865 14.9866C17.1261 14.9866 17.3973 14.9866 17.6283 14.9967C17.8694 15.0067 18.2009 14.9062 18.5223 15.6797C18.8538 16.4732 19.6473 18.4319 19.7478 18.6328C19.8482 18.8337 19.9185 19.0647 19.7779 19.3259C19.0145 20.8527 18.2009 20.7924 18.6127 21.4955C20.1496 24.1373 21.6864 25.0513 24.0268 26.2266C24.4286 26.4275 24.6596 26.3973 24.8906 26.1261C25.1217 25.865 25.885 24.9609 26.1462 24.5692C26.4074 24.1674 26.6786 24.2377 27.0402 24.3683C27.4018 24.4989 29.3605 25.4632 29.7623 25.6641C30.1641 25.865 30.4252 25.9654 30.5257 26.1261C30.6161 26.317 30.6161 27.1205 30.2846 28.0446ZM40.1786 0H4.82143C2.1596 0 0 2.1596 0 4.82143V40.1786C0 42.8404 2.1596 45 4.82143 45H40.1786C42.8404 45 45 42.8404 45 40.1786V4.82143C45 2.1596 42.8404 0 40.1786 0ZM22.49 38.2902C19.8181 38.2902 17.1964 37.6172 14.8761 36.3516L6.42857 38.5714L8.68862 30.3147C7.29241 27.904 6.55915 25.1618 6.55915 22.3493C6.5692 13.5703 13.7109 6.42857 22.49 6.42857C26.7489 6.42857 30.7467 8.08594 33.76 11.0993C36.7634 14.1127 38.5714 18.1105 38.5714 22.3694C38.5714 31.1484 31.269 38.2902 22.49 38.2902Z" fill="#4CB643"/>
</svg>
