<svg width="60" height="60" viewBox="0 0 60 60" fill="none" xmlns="http://www.w3.org/2000/svg">
<path d="M15.7812 38.2812L21.7188 44.2188L19.6875 46.25H17.5V42.5H13.75V40.3125L15.7812 38.2812ZM31.9531 23.0469C32.3177 23.3854 32.2786 23.776 31.8359 24.2188L20.4688 35.5859C20.026 36.0286 19.6354 36.0677 19.2969 35.7031C18.9323 35.3646 18.9714 34.974 19.4141 34.5312L30.7812 23.1641C31.224 22.7214 31.6146 22.6823 31.9531 23.0469ZM21.25 50L42.5 28.75L31.25 17.5L10 38.75V50H21.25ZM45 26.25L48.5938 22.6562C49.3229 21.9271 49.6875 21.0417 49.6875 20C49.6875 18.9583 49.3229 18.0729 48.5938 17.3438L42.6562 11.4062C41.9271 10.6771 41.0417 10.3125 40 10.3125C38.9583 10.3125 38.0729 10.6771 37.3438 11.4062L33.75 15L45 26.25ZM60 11.25V48.75C60 51.849 58.8997 54.4987 56.6992 56.6992C54.4987 58.8997 51.849 60 48.75 60H11.25C8.15104 60 5.5013 58.8997 3.30078 56.6992C1.10026 54.4987 0 51.849 0 48.75V11.25C0 8.15104 1.10026 5.5013 3.30078 3.30078C5.5013 1.10026 8.15104 0 11.25 0H48.75C51.849 0 54.4987 1.10026 56.6992 3.30078C58.8997 5.5013 60 8.15104 60 11.25Z" fill="#178BF7"/>
</svg>
