<svg width="45" height="45" viewBox="0 0 45 45" fill="none" xmlns="http://www.w3.org/2000/svg">
<path d="M45 22.5C45 34.9263 34.9263 45 22.5 45C10.0737 45 0 34.9263 0 22.5C0 10.0737 10.0737 0 22.5 0C34.9263 0 45 10.0737 45 22.5Z" fill="#4CD960"/>
<path d="M14.3006 27.1994C14.2796 27.1781 14.2547 27.1611 14.2272 27.1495C14.1997 27.1379 14.1702 27.1319 14.1403 27.1317C14.1105 27.1316 14.0809 27.1373 14.0533 27.1487C14.0256 27.16 14.0005 27.1767 13.9794 27.1978L10.2509 30.9245L10.4921 32.0689C10.8704 34.038 12.7911 35.3998 14.7604 35.0215L20.4733 33.9237C20.5084 33.917 20.541 33.9008 20.5676 33.877C20.5943 33.8532 20.6139 33.8226 20.6246 33.7885C20.6352 33.7544 20.6364 33.7181 20.628 33.6834C20.6197 33.6486 20.602 33.6168 20.577 33.5913L14.3006 27.1994ZM13.1859 26.3456C13.2309 26.3008 13.2563 26.2401 13.2566 26.1766C13.257 26.1131 13.2322 26.0521 13.1877 26.0069L8.94609 21.6876C8.77927 21.5178 8.49362 21.6677 8.53862 21.9015L9.91657 29.0736C9.95296 29.2627 10.1859 29.3344 10.3223 29.1985L13.1859 26.3456ZM19.889 19.2581C19.9156 19.2852 19.9474 19.3067 19.9824 19.3215C20.0174 19.3362 20.055 19.3439 20.0929 19.3441C20.1309 19.3443 20.1686 19.3369 20.2037 19.3225C20.2388 19.3081 20.2708 19.2869 20.2977 19.26L26.9728 12.6099C27.1303 12.4529 26.9895 12.1866 26.771 12.2286L15.5829 14.3782C15.5428 14.386 15.5055 14.4044 15.4751 14.4316C15.4447 14.4588 15.4222 14.4938 15.41 14.5328C15.3979 14.5718 15.3966 14.6133 15.4062 14.653C15.4158 14.6927 15.436 14.729 15.4646 14.7581L19.889 19.2581ZM32.7824 20.5394L37.0746 24.8581C37.2152 24.9997 37.4541 24.874 37.4172 24.678L36.0465 17.3918C36.0397 17.3557 36.0232 17.3221 35.9987 17.2947C35.9743 17.2672 35.9429 17.247 35.9078 17.236C35.8727 17.2251 35.8353 17.2239 35.7996 17.2326C35.7639 17.2412 35.7312 17.2595 35.7051 17.2853L32.7841 20.1704C32.7597 20.1945 32.7403 20.2232 32.7271 20.2548C32.7138 20.2863 32.7068 20.3203 32.7067 20.3545C32.7065 20.3888 32.7131 20.4228 32.7261 20.4545C32.7391 20.4862 32.7582 20.5151 32.7824 20.5394ZM26.9939 14.6287L31.5862 19.3263C31.6123 19.353 31.6434 19.3742 31.6777 19.3888C31.7121 19.4035 31.749 19.4111 31.7863 19.4114C31.8236 19.4117 31.8606 19.4046 31.8951 19.3906C31.9297 19.3765 31.9612 19.3557 31.9877 19.3295L35.7032 15.652L35.4688 14.2575C35.0904 12.2884 33.2341 10.9867 31.265 11.3652L29.5963 11.6666L26.9976 14.2292C26.9443 14.2818 26.914 14.3533 26.9133 14.4282C26.9126 14.5031 26.9416 14.5752 26.9939 14.6287ZM14.3521 25.0898L19.0328 20.5164C19.0621 20.4877 19.0855 20.4536 19.1016 20.4159C19.1177 20.3782 19.1261 20.3376 19.1266 20.2967C19.127 20.2557 19.1193 20.215 19.1039 20.177C19.0886 20.139 19.0659 20.1044 19.0372 20.0751L13.8179 14.7667L10.9757 15.2635C9.1173 15.6205 7.85431 17.253 8.03589 19.1017L13.9121 25.0853C13.9699 25.1441 14.0487 25.1776 14.1311 25.1784C14.2136 25.1793 14.293 25.1474 14.3521 25.0898ZM26.0772 25.2586L30.8453 20.5308C30.9254 20.4513 30.9261 20.3219 30.8468 20.2416L26.0953 15.4203C26.0763 15.401 26.0538 15.3857 26.0289 15.3753C26.0039 15.3648 25.9772 15.3594 25.9502 15.3593C25.9232 15.3592 25.8964 15.3645 25.8715 15.3748C25.8465 15.3851 25.8238 15.4003 25.8047 15.4194L21.0629 20.1613C21.0247 20.1994 21.0031 20.2512 21.0029 20.3052C21.0026 20.3592 21.0238 20.4111 21.0616 20.4496L25.7872 25.2566C25.806 25.2759 25.8285 25.2912 25.8533 25.3017C25.8782 25.3123 25.9048 25.3178 25.9318 25.318C25.9587 25.3181 25.9855 25.313 26.0104 25.3028C26.0354 25.2926 26.0581 25.2776 26.0772 25.2586ZM26.073 27.2228C26.0518 27.2011 26.0266 27.1839 25.9988 27.1721C25.971 27.1603 25.9411 27.1541 25.9108 27.1539C25.8806 27.1537 25.8506 27.1595 25.8226 27.171C25.7946 27.1824 25.7692 27.1993 25.7478 27.2206L20.9952 31.9609C20.9523 32.0038 20.9282 32.0619 20.9281 32.1226C20.928 32.1832 20.952 32.2414 20.9948 32.2844L22.2527 33.5463L30.2402 32.0088C30.2814 32.0008 30.3198 31.9819 30.3511 31.9539C30.3824 31.926 30.4056 31.8901 30.4181 31.85C30.4306 31.81 30.4321 31.7673 30.4223 31.7264C30.4126 31.6856 30.3919 31.6482 30.3626 31.6182L26.073 27.2228ZM37.9168 27.4219L31.9764 21.3933C31.9521 21.3686 31.9231 21.3489 31.8911 21.3355C31.8591 21.3221 31.8248 21.3151 31.7901 21.315C31.7554 21.3149 31.721 21.3217 31.689 21.335C31.6569 21.3483 31.6279 21.3678 31.6034 21.3924L26.951 26.0689C26.9023 26.118 26.8748 26.1842 26.8746 26.2534C26.8744 26.3225 26.9015 26.3889 26.95 26.4382L32.0606 31.6373L35.0496 31.0629C36.8167 30.7234 37.9563 29.1658 37.9168 27.4219ZM20.0261 24.8829C19.6739 24.8829 19.3361 25.0229 19.087 25.2719C18.8379 25.521 18.698 25.8588 18.698 26.211C18.698 26.5633 18.8379 26.9011 19.087 27.1502C19.3361 27.3992 19.6739 27.5392 20.0261 27.5392C20.2005 27.5392 20.3732 27.5048 20.5344 27.4381C20.6955 27.3713 20.8419 27.2735 20.9652 27.1501C21.0885 27.0268 21.1864 26.8804 21.2531 26.7192C21.3198 26.5581 21.3542 26.3854 21.3541 26.211C21.3542 26.0366 21.3198 25.8639 21.2531 25.7027C21.1864 25.5416 21.0885 25.3952 20.9652 25.2719C20.8419 25.1485 20.6955 25.0507 20.5343 24.984C20.3732 24.9172 20.2005 24.8829 20.0261 24.8829ZM16.2139 13.5679L17.3182 13.3267C17.3783 13.3136 17.4325 13.2814 17.4728 13.235C17.5132 13.1886 17.5374 13.1304 17.542 13.069L17.5261 12.5652C17.556 12.1671 17.7578 11.7582 18.0164 11.4541C18.3201 11.0968 18.674 10.8169 19.1226 10.7264L21.792 10.1795C22.3941 10.0581 23.2552 10.3386 23.724 10.8464C23.9597 11.1104 24.1461 11.4144 24.2744 11.7442C24.315 11.8493 24.4238 11.9112 24.5347 11.8909L25.6172 11.6932C25.6479 11.6877 25.6772 11.676 25.7034 11.6589C25.7295 11.6418 25.7519 11.6196 25.7693 11.5936C25.7866 11.5676 25.7985 11.5384 25.8043 11.5077C25.8101 11.477 25.8097 11.4454 25.803 11.4149C25.739 11.1298 25.5432 10.5937 24.948 9.83079C24.3099 8.97139 22.7076 8.4284 21.5459 8.6629L18.9171 9.1934C17.6091 9.45743 16.4454 10.4167 16.1329 11.7579C15.9576 12.2928 15.9522 13.0042 15.964 13.3737C15.9649 13.4039 15.9726 13.4335 15.9863 13.4604C16 13.4874 16.0195 13.5109 16.0433 13.5295C16.0672 13.548 16.0949 13.5611 16.1244 13.5677C16.1538 13.5744 16.1844 13.5744 16.2139 13.5679Z" fill="white"/>
</svg>
