<svg width="50" height="50" viewBox="0 0 50 50" fill="none" xmlns="http://www.w3.org/2000/svg">
<path d="M2.08351 20.8309C1.53093 20.8309 1.00098 20.6114 0.610245 20.2207C0.219512 19.8299 0 19.3 0 18.7474V2.08351C0 1.53093 0.219512 1.00098 0.610245 0.610246C1.00098 0.219512 1.53093 0 2.08351 0H18.7516C19.3041 0 19.8341 0.219512 20.2248 0.610246C20.6156 1.00098 20.8351 1.53093 20.8351 2.08351V18.7474C20.8351 19.3 20.6156 19.8299 20.2248 20.2207C19.8341 20.6114 19.3041 20.8309 18.7516 20.8309H2.08351ZM31.2526 20.8309C30.7 20.8309 30.1701 20.6114 29.7793 20.2207C29.3886 19.8299 29.1691 19.3 29.1691 18.7474V2.08351C29.1691 1.53093 29.3886 1.00098 29.7793 0.610246C30.1701 0.219512 30.7 0 31.2526 0H47.9165C48.4691 0 48.999 0.219512 49.3898 0.610246C49.7805 1.00098 50 1.53093 50 2.08351V18.7474C50 19.3 49.7805 19.8299 49.3898 20.2207C48.999 20.6114 48.4691 20.8309 47.9165 20.8309H31.2526ZM2.08351 50C1.53093 50 1.00098 49.7805 0.610245 49.3898C0.219512 48.9991 0 48.4691 0 47.9165V31.2485C0 30.6959 0.219512 30.1659 0.610245 29.7752C1.00098 29.3845 1.53093 29.165 2.08351 29.165H18.7516C19.3041 29.165 19.8341 29.3845 20.2248 29.7752C20.6156 30.1659 20.8351 30.6959 20.8351 31.2485V47.9165C20.8351 48.4691 20.6156 48.9991 20.2248 49.3898C19.8341 49.7805 19.3041 50 18.7516 50H2.08351ZM31.2526 50C30.7 50 30.1701 49.7805 29.7793 49.3898C29.3886 48.9991 29.1691 48.4691 29.1691 47.9165V31.2485C29.1691 30.6959 29.3886 30.1659 29.7793 29.7752C30.1701 29.3845 30.7 29.165 31.2526 29.165H47.9165C48.4691 29.165 48.999 29.3845 49.3898 29.7752C49.7805 30.1659 50 30.6959 50 31.2485V47.9165C50 48.4691 49.7805 48.9991 49.3898 49.3898C48.999 49.7805 48.4691 50 47.9165 50H31.2526Z" fill="#2B8BE4"/>
</svg>
