<svg width="18" height="19" viewBox="0 0 18 19" fill="none" xmlns="http://www.w3.org/2000/svg">
<g clip-path="url(#clip0_7_18)">
<path d="M8.99999 17.64C9.29746 17.6327 9.58292 17.5143 9.80589 17.3057C10.0288 17.0971 10.1749 16.8117 10.2183 16.5H7.73444C7.77905 16.8202 7.93198 17.1123 8.16477 17.322C8.39757 17.5317 8.69438 17.6447 8.99999 17.64Z" fill="#E5E5E5"/>
<path d="M15.852 14.415C15.3966 13.9852 14.9979 13.4924 14.6667 12.95C14.3051 12.2013 14.0883 11.3836 14.0292 10.545V8.075C14.0273 7.77497 14.002 7.47563 13.9536 7.18C13.582 7.10133 13.2248 6.9595 12.8959 6.76C13.0212 7.18742 13.0849 7.63244 13.0848 8.08V10.55C13.1426 11.573 13.4084 12.5707 13.8639 13.475C14.1899 14.022 14.5768 14.5256 15.0161 14.975H2.92253C3.36189 14.5256 3.74873 14.022 4.07475 13.475C4.53026 12.5707 4.79604 11.573 4.85392 10.55V8.075C4.85143 7.49634 4.95677 6.92285 5.16391 6.38736C5.37104 5.85187 5.67589 5.3649 6.06102 4.95433C6.44615 4.54376 6.90398 4.21766 7.4083 3.9947C7.91262 3.77174 8.45352 3.65631 9.00003 3.655C9.79986 3.65567 10.5817 3.90612 11.2478 4.375C11.1744 4.08949 11.1332 3.79578 11.125 3.5V3.185C10.632 2.92818 10.1023 2.75924 9.55725 2.685V2.055C9.55725 1.87796 9.49083 1.70818 9.37261 1.583C9.25438 1.45782 9.09403 1.3875 8.92684 1.3875C8.75964 1.3875 8.59929 1.45782 8.48106 1.583C8.36284 1.70818 8.29642 1.87796 8.29642 2.055V2.71C7.07606 2.89227 5.95919 3.53587 5.152 4.52196C4.3448 5.50806 3.90179 6.77007 3.90475 8.075V10.545C3.84561 11.3836 3.62887 12.2013 3.26725 12.95C2.94184 13.4912 2.54957 13.9839 2.10086 14.415C2.05049 14.4619 2.01012 14.5195 1.98244 14.5842C1.95475 14.6488 1.94039 14.719 1.94031 14.79V15.47C1.94031 15.6026 1.99006 15.7298 2.07862 15.8236C2.16718 15.9173 2.28729 15.97 2.41253 15.97H15.5403C15.6656 15.97 15.7857 15.9173 15.8742 15.8236C15.9628 15.7298 16.0125 15.6026 16.0125 15.47V14.79C16.0124 14.719 15.9981 14.6488 15.9704 14.5842C15.9427 14.5195 15.9023 14.4619 15.852 14.415Z" fill="#E5E5E5"/>
<path d="M14.6667 6C15.9707 6 17.0278 4.88071 17.0278 3.5C17.0278 2.11929 15.9707 1 14.6667 1C13.3626 1 12.3055 2.11929 12.3055 3.5C12.3055 4.88071 13.3626 6 14.6667 6Z" fill="#E5E5E5"/>
</g>
<defs>
<clipPath id="clip0_7_18">
<rect width="17" height="18" fill="white" transform="translate(0.5 0.5)"/>
</clipPath>
</defs>
</svg>
